<?xml version="1.0" encoding="UTF-8" standalone="no"?>
<!-- Generator: Adobe Illustrator 15.0.2, SVG Export Plug-In  -->

<svg
   xmlns:dc="http://purl.org/dc/elements/1.1/"
   xmlns:cc="http://creativecommons.org/ns#"
   xmlns:rdf="http://www.w3.org/1999/02/22-rdf-syntax-ns#"
   xmlns:svg="http://www.w3.org/2000/svg"
   xmlns="http://www.w3.org/2000/svg"
   xmlns:sodipodi="http://sodipodi.sourceforge.net/DTD/sodipodi-0.dtd"
   xmlns:inkscape="http://www.inkscape.org/namespaces/inkscape"
   version="1.1"
   x="0px"
   y="0px"
   width="212.82422"
   height="143.71338"
   viewBox="-95.202148 -45.609863 212.82422 143.71338"
   overflow="visible"
   enable-background="new -95.2021484 -45.6098633 482 283"
   xml:space="preserve"
   id="svg76"
   sodipodi:docname="fit-iotlab-complete.svg"
   style="overflow:visible"
   inkscape:version="0.92.1 r15371"><metadata
     id="metadata80"><rdf:RDF><cc:Work
         rdf:about=""><dc:format>image/svg+xml</dc:format><dc:type
           rdf:resource="http://purl.org/dc/dcmitype/StillImage" /><dc:title></dc:title></cc:Work></rdf:RDF></metadata><sodipodi:namedview
     pagecolor="#ffffff"
     bordercolor="#666666"
     borderopacity="1"
     objecttolerance="10"
     gridtolerance="10"
     guidetolerance="10"
     inkscape:pageopacity="0"
     inkscape:pageshadow="2"
     inkscape:window-width="1920"
     inkscape:window-height="1017"
     id="namedview78"
     showgrid="false"
     fit-margin-top="10"
     fit-margin-right="10"
     fit-margin-bottom="10"
     fit-margin-left="10"
     inkscape:zoom="0.73858921"
     inkscape:cx="155.79785"
     inkscape:cy="37.823242"
     inkscape:window-x="1592"
     inkscape:window-y="-8"
     inkscape:window-maximized="1"
     inkscape:current-layer="svg76" /><defs
     id="defs2" /><path
     d="m -36.752929,44.916504 c 0,0.06641 0,0.154297 0,0.220703 0,1.341797 0.770508,2.177735 1.892578,2.177735 1.231445,0 2.001953,-0.791016 2.001953,-2.045899 0,-1.672851 -0.923828,-1.782226 -2.618164,-2.30957 -2.398438,-0.749023 -3.586914,-2.113281 -3.586914,-4.269531 0,-2.948242 1.782226,-4.862305 4.466797,-4.862305 2.530273,0 4.114257,1.649414 4.291015,4.510742 h -2.772461 c 0,-0.04492 0,-0.08789 0,-0.132812 0,-1.011719 -0.660156,-1.671875 -1.628906,-1.671875 -0.990234,0 -1.62793,0.660156 -1.62793,1.759765 0,0.441407 0.110352,0.792969 0.374024,1.078125 0.616211,0.682618 1.65039,0.771485 2.882812,1.189453 2.133789,0.725586 3.146485,2.045899 3.146485,4.179688 0,3.234375 -1.958985,5.347656 -4.907227,5.347656 -2.772461,0 -4.664062,-2.02539 -4.708008,-5.171875 z"
     id="path4"
     inkscape:connector-curvature="0"
     style="fill:#8bb0de" /><path
     d="M -27.84375,49.779785 V 34.135254 h 8.449219 v 2.75 h -5.412109 v 3.56543 h 5.412109 v 2.706055 h -5.412109 v 3.873046 h 5.412109 v 2.75 z"
     id="path6"
     inkscape:connector-curvature="0"
     style="fill:#8bb0de" /><path
     d="M -16.755859,49.779785 V 34.135254 h 2.904297 l 6.4697266,9.990235 v -9.990235 h 2.992187 v 15.644531 h -2.838867 L -13.741211,39.48291 v 10.296875 z"
     id="path8"
     inkscape:connector-curvature="0"
     style="fill:#8bb0de" /><path
     d="m 0.3164066,44.916504 c 0,0.06641 0,0.154297 0,0.220703 0,1.341797 0.770507,2.177735 1.892578,2.177735 1.231445,0 2.001953,-0.791016 2.001953,-2.045899 0,-1.672851 -0.923828,-1.782226 -2.618164,-2.30957 -2.398438,-0.749023 -3.586914,-2.113281 -3.586914,-4.269531 0,-2.948242 1.782226,-4.862305 4.466797,-4.862305 2.530273,0 4.114257,1.649414 4.291015,4.510742 h -2.772461 c 0,-0.04492 0,-0.08789 0,-0.132812 0,-1.011719 -0.660156,-1.671875 -1.628906,-1.671875 -0.990234,0 -1.62793,0.660156 -1.62793,1.759765 0,0.441407 0.110352,0.792969 0.374024,1.078125 0.616211,0.682618 1.65039,0.771485 2.882812,1.189453 2.133789,0.725586 3.146485,2.045899 3.146485,4.179688 0,3.234375 -1.958985,5.347656 -4.907227,5.347656 -2.772461,0 -4.664062,-2.02539 -4.708984,-5.171875 z"
     id="path10"
     inkscape:connector-curvature="0"
     style="fill:#8bb0de" /><path
     d="M 9.2265626,34.135254 H 12.285157 V 49.779785 H 9.2265626 Z"
     id="path12"
     inkscape:connector-curvature="0"
     style="fill:#8bb0de" /><path
     d="M 15.033202,49.779785 V 34.135254 h 2.9043 l 6.46973,9.990235 v -9.990235 h 2.99218 v 15.644531 h -2.83886 l -6.5127,-10.296875 v 10.296875 z"
     id="path14"
     inkscape:connector-curvature="0"
     style="fill:#8bb0de" /><path
     d="m 45.462892,41.990723 c 0,1.341797 -0.24219,2.486328 -0.74805,3.498047 -1.47461,2.949219 -4.11523,4.599609 -7.32715,4.599609 -2.35449,0 -4.3789,-0.902344 -5.98535,-2.685547 -1.32031,-1.473633 -2.0459,-3.387695 -2.0459,-5.543945 0,-2.178711 0.8584,-4.15918 2.48633,-5.764648 1.54004,-1.518555 3.41016,-2.266602 5.74317,-2.266602 3.34375,0 5.85254,1.671875 7.19433,4.84082 h -3.71777 c -0.90235,-1.123047 -2.13477,-1.694336 -3.65332,-1.694336 -2.68457,0 -4.7959,2.22168 -4.7959,4.972657 0,2.816406 2.13379,4.995117 4.88379,4.995117 1.87109,0 3.56543,-1.078125 4.31348,-2.861328 h -6.13965 v -2.618164 h 9.76953 c 0,0.176757 0.0225,0.352539 0.0225,0.52832 z"
     id="path16"
     inkscape:connector-curvature="0"
     style="fill:#8bb0de" /><path
     d="m -38.601562,68.787107 v -15.64404 h 8.449219 v 2.75 h -5.41211 v 3.565429 h 5.41211 v 2.705567 h -5.41211 v 3.873044 h 5.41211 v 2.75 z"
     id="path18"
     inkscape:connector-curvature="0"
     style="fill:#8bb0de" /><path
     d="m -27.513671,68.787107 v -15.64404 h 4.048828 l 3.982422,11.37549 3.960937,-11.37549 h 4.048828 v 15.64404 h -3.014648 l 0.110351,-11.353025 -3.960937,11.353025 h -2.310547 l -3.960938,-11.353025 0.132813,11.353025 z"
     id="path20"
     inkscape:connector-curvature="0"
     style="fill:#8bb0de" /><path
     d="m -8.6591794,53.143067 h 2.332031 c 0.352539,0 0.704102,0 1.03418,0 1.034179,0 1.914062,0.04492 2.68457,0.352539 1.71582,0.704101 2.662109,2.067383 2.662109,3.828125 0,1.452148 -0.549804,2.508789 -1.605468,3.036133 1.540039,0.46289 2.486328,1.848144 2.486328,3.651855 0,1.497068 -0.594727,2.838868 -1.541016,3.653318 -1.166015,0.99024 -2.442383,1.12207 -4.135742,1.12207 h -3.916992 z m 3.300781,6.292968 c 1.671875,0 2.507812,-0.59375 2.507812,-1.826172 0,-1.1875 -0.791992,-1.716796 -2.419921,-1.716796 h -0.44043 v 3.542968 z m 0.571289,6.601072 c 1.804688,0 2.707031,-0.57226 2.707031,-1.91406 0,-1.408203 -0.924804,-2.15625 -2.707031,-2.15625 h -0.923828 v 4.07031 z"
     id="path22"
     inkscape:connector-curvature="0"
     style="fill:#8bb0de" /><path
     d="m 2.8242186,68.787107 v -15.64404 h 8.4492194 v 2.75 H 5.8613286 v 3.565429 h 5.4121094 v 2.705567 H 5.8613286 v 3.873044 h 5.4121094 v 2.75 z"
     id="path24"
     inkscape:connector-curvature="0"
     style="fill:#8bb0de" /><path
     d="m 13.91211,68.787107 v -15.64404 h 5.237302 c 2.46387,0 4.15821,0.352539 5.72071,1.871094 1.47363,1.429687 2.24414,3.476562 2.24414,6.02832 0,2.838379 -1.07813,5.126466 -3.10254,6.578616 -1.36426,0.99023 -2.83789,1.16601 -4.77442,1.16601 z M 23.990232,60.95459 c 0,-3.256836 -1.84863,-5.149414 -4.99511,-5.149414 h -2.00196 v 10.297361 h 2.0459 c 3.36621,0 4.95117,-1.58398 4.95117,-5.147947 z"
     id="path26"
     inkscape:connector-curvature="0"
     style="fill:#8bb0de" /><path
     d="m 29.091802,68.787107 v -15.64404 h 5.2373 c 2.46387,0 4.1582,0.352539 5.7207,1.871094 1.47364,1.429687 2.24414,3.476562 2.24414,6.02832 0,2.838379 -1.07812,5.126466 -3.10254,6.578616 -1.36425,0.99023 -2.83789,1.16601 -4.77441,1.16601 z m 10.07812,-7.832517 c 0,-3.256836 -1.84863,-5.149414 -4.99512,-5.149414 h -2.00195 v 10.297361 h 2.0459 c 3.36621,0 4.95117,-1.58398 4.95117,-5.147947 z"
     id="path28"
     inkscape:connector-curvature="0"
     style="fill:#8bb0de" /><path
     d="m 44.293942,68.787107 v -15.64404 h 8.44922 v 2.75 h -5.41211 v 3.565429 h 5.41211 v 2.705567 h -5.41211 v 3.873044 h 5.41211 v 2.75 z"
     id="path30"
     inkscape:connector-curvature="0"
     style="fill:#8bb0de" /><path
     d="m 55.381832,68.787107 v -15.64404 h 5.23731 c 2.46387,0 4.1582,0.352539 5.7207,1.871094 1.47461,1.429687 2.24414,3.476562 2.24414,6.02832 0,2.838379 -1.07812,5.126466 -3.10254,6.578616 -1.36425,0.99023 -2.83789,1.16601 -4.77441,1.16601 z m 10.07813,-7.832517 c 0,-3.256836 -1.84863,-5.149414 -4.99512,-5.149414 h -2.00195 v 10.297361 h 2.0459 c 3.36621,0 4.95117,-1.58398 4.95117,-5.147947 z"
     id="path32"
     inkscape:connector-curvature="0"
     style="fill:#8bb0de" /><path
     d="m -38.601562,87.794927 v -15.64356 h 4.048828 l 3.982422,11.37598 3.960937,-11.37598 h 4.048828 v 15.64356 h -3.014648 l 0.110352,-11.35352 -3.960938,11.35352 h -2.310547 l -3.960937,-11.35352 0.132812,11.35352 z"
     id="path34"
     inkscape:connector-curvature="0"
     style="fill:#8bb0de" /><path
     d="m -19.197265,75.363277 c 1.540039,-2.24414 3.959961,-3.51953 6.732422,-3.51953 2.09082,0 4.0712886,0.83594 5.5888666,2.33203 1.5625,1.5625 2.398437,3.56446 2.398437,5.69825 0,2.24511 -0.791992,4.24707 -2.266601,5.76465 -1.517578,1.58398 -3.5859376,2.46484 -5.7646486,2.46484 -2.30957,0 -4.290039,-0.81445 -5.830078,-2.46484 -1.453125,-1.54004 -2.222656,-3.49805 -2.222656,-5.69825 0,-1.73828 0.461914,-3.25683 1.364258,-4.57715 z m 3.167969,7.94336 c 0.96875,1.05664 2.24414,1.62891 3.520507,1.62891 2.6630856,0 4.8408206,-2.11328 4.8408206,-5.10547 0,-2.66211 -2.15625,-4.81836 -4.7744136,-4.81836 -2.750977,0 -4.907227,2.15625 -4.907227,4.81836 0,1.3418 0.44043,2.50879 1.320313,3.47656 z"
     id="path36"
     inkscape:connector-curvature="0"
     style="fill:#8bb0de" /><path
     d="m -2.5000004,72.151367 h 2.332032 c 0.352539,0 0.704101,0 1.034179,0 1.03418,0 1.914063,0.0439 2.684571,0.35254 1.71582,0.70312 2.662109,2.06738 2.662109,3.82812 0,1.45215 -0.549805,2.50782 -1.605469,3.03614 1.540039,0.46191 2.486328,1.84863 2.486328,3.65234 0,1.49707 -0.594726,2.83887 -1.541015,3.65332 -1.166016,0.99024 -2.442383,1.1211 -4.136719,1.1211 h -3.916016 z m 3.300782,6.29199 c 1.671875,0 2.507812,-0.59375 2.507812,-1.82617 0,-1.1875 -0.791992,-1.71582 -2.419922,-1.71582 h -0.440429 v 3.54199 z m 0.571289,6.60157 c 1.804687,0 2.707031,-0.57227 2.707031,-1.91407 0,-1.4082 -0.924805,-2.15625 -2.707031,-2.15625 h -0.923828 v 4.07032 z"
     id="path38"
     inkscape:connector-curvature="0"
     style="fill:#8bb0de" /><path
     d="m 9.0283206,72.151367 h 3.0585944 v 15.64356 H 9.0283206 Z"
     id="path40"
     inkscape:connector-curvature="0"
     style="fill:#8bb0de" /><path
     d="m 14.834962,87.794927 v -15.64356 h 3.03711 v 12.89356 h 4.90625 v 2.75 z"
     id="path42"
     inkscape:connector-curvature="0"
     style="fill:#8bb0de" /><path
     d="m 24.185552,87.794927 v -15.64356 h 8.44921 v 2.75 h -5.41211 v 3.56445 h 5.41211 v 2.70606 h -5.41211 v 3.87305 h 5.41211 v 2.75 z"
     id="path44"
     inkscape:connector-curvature="0"
     style="fill:#8bb0de" /><polygon
     points="63.369141,12.78418 54.677734,12.78418 54.677734,9.1103516 63.369141,9.1103516 63.369141,1.6738281 46.542969,1.6738281 46.542969,31.824219 54.677734,31.824219 54.677734,20.34375 63.369141,20.34375 "
     id="polygon46"
     style="fill:#20539d"
     transform="translate(-85.202148,-35.609863)" /><rect
     x="-2.1523438"
     y="-33.936035"
     width="8.1337891"
     height="30.150391"
     id="rect48"
     style="fill:#20539d" /><polygon
     points="108.9082,9.4375 114.31934,9.4375 114.31934,31.824219 122.4541,31.824219 122.4541,9.4375 127.98828,9.4375 127.98828,1.6738281 108.9082,1.6738281 "
     id="polygon50"
     style="fill:#20539d"
     transform="translate(-85.202148,-35.609863)" /><rect
     x="-38.618164"
     y="-0.93603516"
     width="8.1347656"
     height="30.150391"
     id="rect52"
     style="fill:#20539d" /><path
     d="m -11.730468,-1.4692383 c -4.312012,0 -8.00293,1.48291 -10.970215,4.407715 -2.95166,2.90918 -4.57666,6.777832 -4.57666,10.8930663 0,4.401856 1.438964,8.158692 4.277343,11.167969 2.981446,3.150391 6.759278,4.748047 11.228516,4.748047 4.2519526,0 8.1943356,-1.670898 11.0996086,-4.702637 2.855957,-2.941894 4.365235,-6.776855 4.365235,-11.090332 0,-4.1157223 -1.654297,-8.0136723 -4.658691,-10.9750973 -2.911133,-2.868653 -6.733887,-4.448731 -10.7651366,-4.448731 z m 7.0439446,15.3828123 c 0,4.342286 -3.045898,7.617188 -7.0849606,7.617188 -3.884765,0 -7.166992,-3.488281 -7.166992,-7.617188 0,-4.0195313 3.184082,-7.1679683 7.249023,-7.1679683 3.8613276,0 7.0029296,3.215332 7.0029296,7.1679683 z"
     id="path54"
     inkscape:connector-curvature="0"
     style="fill:#20539d" /><polygon
     points="94.757812,64.824219 102.89258,64.824219 102.89258,42.4375 108.42773,42.4375 108.42773,34.673828 89.34668,34.673828 89.34668,42.4375 94.757812,42.4375 "
     id="polygon56"
     style="fill:#20539d"
     transform="translate(-85.202148,-35.609863)" /><rect
     x="23.397461"
     y="14.274902"
     width="12.02832"
     height="6.8623047"
     id="rect58"
     style="fill:#20539d" /><path
     d="m 67.484372,-0.9370113 -11.3164,29.4721683 v -6.758301 h -8.32325 V -0.9360353 h -8.09277 V 29.214356 h 16.15527 0.26075 8.61133 l 1.47705,-4.222657 h 8.92138 l 1.43457,4.222657 h 8.95801 L 73.994142,-0.9370113 Z m 5.44825,18.9013673 h -4.42579 l 2.2295,-7.155274 z"
     id="path60"
     inkscape:connector-curvature="0"
     style="fill:#20539d" /><path
     d="m 103.30566,12.865235 c 2.04102,-1.348145 2.96387,-3.2797863 2.96387,-6.1274423 0,-4.94873 -3.38184,-7.673828 -9.520508,-7.673828 H 86.286132 V 29.214356 h 9.35645 c 3.64746,0 6.626458,-0.169434 8.987298,-2.303223 1.92969,-1.758301 2.99219,-4.320801 2.99219,-7.216309 0,-3.367675 -1.41455,-5.611328 -4.31641,-6.829589 z m -7.909178,-2.48584 h -1.22265 V 6.1723637 h 1.83691 c 1.97461,0 2.78027,0.650878 2.78027,2.24707 0,1.270996 -0.54101,1.9599613 -3.39453,1.9599613 z m 4.17383,9.192383 c 0,1.91748 -0.84521,2.533203 -3.47754,2.533203 h -1.91894 V 16.95459 h 1.79589 c 2.75879,0 3.60059,0.611328 3.60059,2.617188 z"
     id="path62"
     inkscape:connector-curvature="0"
     style="fill:#20539d" /><path
     d="m -43.248046,-14.633301 c 0,-11.584961 -9.392579,-20.976562 -20.97754,-20.976562 -11.584961,0 -20.976562,9.391601 -20.976562,20.976562 0,11.5849607 9.391601,20.9765627 20.976562,20.9765627 11.584961,0 20.97754,-9.391602 20.97754,-20.9765627"
     id="path64"
     inkscape:connector-curvature="0"
     style="fill:#20539d" /><path
     d="m -61.126953,-15.13916 c 0.285156,1.75293 -0.90039,3.404297 -2.655273,3.689453 -1.75,0.28711 -3.400391,-0.902344 -3.688477,-2.654297 -0.285156,-1.751953 0.904297,-3.40332 2.65625,-3.689453 1.751953,-0.286133 3.400391,0.902344 3.6875,2.654297"
     id="path66"
     inkscape:connector-curvature="0"
     style="fill:#ffffff" /><path
     d="m -68.918945,-13.865722 3.009766,3.682617 4.693359,-0.766602 1.68457,-4.449219 -3.009765,-3.682617 -4.695313,0.766602 z m 2.634766,4.6718747 -3.679688,-4.5019537 2.057617,-5.438476 5.739258,-0.936524 3.680664,4.5 -2.060546,5.44043 z"
     id="path68"
     inkscape:connector-curvature="0"
     style="fill:#ffffff" /><path
     d="m -44.412109,-13.562988 -2.287109,-0.130859 c 0.01855,-0.308594 0.02539,-0.623047 0.02539,-0.938477 0,-9.678711 -7.874023,-17.553711 -17.552734,-17.553711 -3.745117,0 -7.320313,1.164062 -10.336914,3.364258 l -1.350586,-1.84961 c 3.412109,-2.489258 7.454101,-3.805664 11.6875,-3.805664 10.941406,0 19.84375,8.902344 19.84375,19.844727 0,0.360352 -0.0088,0.716797 -0.0293,1.069336 m -19.81445,18.7734367 c -10.94043,0 -19.840821,-8.902343 -19.840821,-19.8427727 h 2.291016 c 0,9.6777337 7.87207,17.5517577 17.549805,17.5517577 3.625,0 7.106445,-1.095703 10.066406,-3.168945 l 1.314453,1.875 c -3.346679,2.345703 -7.282226,3.58496 -11.380859,3.58496"
     id="path70"
     inkscape:connector-curvature="0"
     style="fill:#ffffff" /><path
     d="m -51.880859,-13.836426 -1.373047,-0.08398 c 0.01367,-0.232422 0.02246,-0.464844 0.02246,-0.700195 0,-6.102539 -4.963867,-11.067383 -11.06543,-11.067383 -2.361328,0 -4.615234,0.734375 -6.519531,2.12207 l -0.808594,-1.110351 c 2.139649,-1.560547 4.673828,-2.385743 7.328125,-2.385743 6.859375,0 12.44043,5.581055 12.44043,12.441407 0,0.262695 -0.0088,0.524414 -0.02441,0.784179 m -12.416016,11.6562497 c -6.861328,0 -12.443359,-5.580078 -12.443359,-12.4404287 h 1.374023 c 0,6.1015617 4.964844,11.0673827 11.069336,11.0673827 2.285156,0 4.478516,-0.692383 6.345703,-2.001954 l 0.789063,1.125 c -2.098633,1.472657 -4.567383,2.25 -7.134766,2.25"
     id="path72"
     inkscape:connector-curvature="0"
     style="fill:#ffffff" /><path
     d="m -48.083984,-13.750488 h -1.833008 c 0,-8.416016 -6.451172,-15.263672 -14.379882,-15.263672 -3.060547,0 -5.982422,0.948242 -8.451172,2.74414 l -1.078125,-1.482421 c 2.783203,-2.024415 6.079101,-3.09375 9.529297,-3.09375 8.940429,0 16.21289,7.667969 16.21289,17.095703 M -64.296875,1.5815427 c -8.941406,0 -16.21582,-7.274414 -16.21582,-16.2148437 h 1.832031 c 0,7.9306647 6.453125,14.3808597 14.383789,14.3808597 2.979493,0 5.837891,-0.90332 8.266602,-2.611328 l 1.053711,1.499023 c -2.737305,1.924805 -5.959961,2.944336 -9.320313,2.946289"
     id="path74"
     inkscape:connector-curvature="0"
     style="fill:#ffffff" /></svg>